<svg xmlns="http://www.w3.org/2000/svg" xmlns:xlink="http://www.w3.org/1999/xlink" width="500" zoomAndPan="magnify" viewBox="0 0 375 374.999991" height="500" preserveAspectRatio="xMidYMid meet" version="1.0">
  <path fill="#010101" d="M 348.574219 148.242188 C 338.445312 145.160156 328.097656 148.019531 317.75 148.167969 C 312.683594 148.242188 313.34375 156.015625 318.335938 155.945312 C 327.949219 155.796875 337.640625 153.007812 347.035156 155.871094 C 351.953125 157.335938 353.421875 149.636719 348.574219 148.242188 Z M 325.382812 225.851562 C 321.859375 222.257812 316.722656 228.199219 320.242188 231.722656 C 325.382812 236.929688 331.179688 243.238281 331.472656 251.015625 C 331.695312 256.078125 339.472656 255.417969 339.253906 250.429688 C 338.8125 240.523438 331.988281 232.527344 325.382812 225.851562 Z M 325.382812 225.851562 " fill-opacity="1" fill-rule="nonzero" />
  <path fill="#73a1b2" d="M 243.398438 277.128906 C 243.175781 276.691406 242.148438 275.738281 241.5625 275.296875 C 235.394531 270.382812 225.5625 270.453125 218.074219 270.234375 C 207.726562 269.941406 197.230469 269.132812 186.878906 270.527344 C 182.109375 271.1875 177.410156 272.507812 172.566406 272.875 C 169.117188 273.167969 165.667969 273.242188 162.292969 273.535156 C 158.546875 273.828125 154.511719 274.121094 150.988281 275.589844 C 148.125 276.835938 147.171875 280.503906 151.429688 279.992188 C 152.824219 279.769531 153.925781 280.285156 154.585938 281.164062 C 157.082031 281.164062 159.648438 281.164062 162.144531 281.089844 C 174.917969 280.945312 187.6875 280.652344 200.457031 281.238281 C 208.019531 281.605469 215.433594 282.632812 222.992188 282.046875 C 228.421875 281.605469 234 281.089844 239.140625 279.332031 C 240.167969 278.964844 241.339844 278.671875 242.296875 278.082031 C 242.734375 277.71875 243.101562 277.496094 243.398438 277.128906 C 243.324219 277.277344 243.324219 277.203125 243.398438 277.128906 Z M 243.398438 277.128906 " fill-opacity="1" fill-rule="nonzero" />
  <path fill="#febf10" d="M 207.578125 217.269531 C 210 207.367188 213.449219 198.199219 217.925781 189.101562 C 216.164062 188.367188 214.550781 187.265625 213.230469 185.875 C 209.339844 187.78125 204.9375 188.367188 200.238281 186.902344 C 197.890625 186.167969 195.761719 185.140625 193.78125 183.820312 C 189.960938 185.507812 185.632812 185.726562 181.449219 185.726562 C 180.640625 185.726562 179.90625 185.726562 179.101562 185.726562 C 190.992188 208.613281 193.484375 236.855469 193.484375 261.871094 C 193.484375 261.871094 193.484375 261.945312 193.484375 261.945312 C 194.441406 261.871094 195.46875 261.796875 196.421875 261.796875 C 197.964844 261.796875 199.503906 261.796875 201.046875 261.796875 C 200.089844 260.992188 199.578125 259.816406 199.871094 258.203125 C 202.585938 244.632812 204.277344 230.769531 207.578125 217.269531 Z M 207.578125 217.269531 " fill-opacity="1" fill-rule="nonzero" />
  <path fill="#73a1b2" d="M 229.597656 336.988281 C 226.882812 336.917969 224.972656 334.789062 225.488281 332.222656 C 225.265625 332.222656 225.121094 332.296875 224.898438 332.296875 C 209.339844 332.367188 193.851562 333.835938 178.292969 333.46875 C 171.832031 333.320312 162.4375 333.394531 155.539062 330.386719 C 153.410156 337.722656 155.464844 345.9375 164.125 348.214844 C 174.183594 350.855469 184.605469 347.773438 194.734375 347.992188 C 200.3125 348.140625 205.890625 348.652344 211.46875 348.726562 C 216.3125 348.800781 222.332031 349.09375 226.882812 347.039062 C 229.597656 345.792969 232.019531 343.152344 233.121094 340.4375 C 234.148438 337.503906 232.3125 337.0625 229.597656 336.988281 Z M 229.597656 336.988281 " fill-opacity="1" fill-rule="nonzero" />
  <path fill="#febf10" d="M 193.558594 161.296875 C 191.210938 164.453125 192.53125 169.515625 194.148438 172.667969 C 194.367188 173.035156 194.511719 173.402344 194.734375 173.769531 C 194.878906 173.621094 195.101562 173.402344 195.246094 173.257812 C 197.816406 170.6875 202.808594 165.921875 202.585938 161.8125 C 202.367188 158.4375 195.175781 159.171875 193.558594 161.296875 Z M 193.558594 161.296875 " fill-opacity="1" fill-rule="nonzero" />
  <path fill="#73a1b2" d="M 229.597656 311.828125 C 229.230469 311.242188 229.011719 310.433594 228.9375 309.699219 C 224.753906 311.609375 219.617188 311.976562 215.285156 312.269531 C 209.046875 312.636719 202.808594 312.5625 196.496094 312.488281 C 182.917969 312.269531 168.015625 313.148438 155.613281 306.839844 C 153.777344 309.039062 152.164062 311.460938 151.207031 314.175781 C 150.476562 316.375 150.695312 317.769531 151.871094 318.722656 C 152.824219 318.652344 153.851562 319.015625 154.585938 319.898438 C 154.660156 319.898438 154.730469 319.972656 154.878906 319.972656 C 156.347656 320.265625 157.59375 321.511719 157.960938 322.90625 C 160.53125 324.226562 163.980469 324.59375 166.402344 324.960938 C 171.613281 325.691406 176.898438 325.839844 182.183594 325.839844 C 196.203125 325.839844 210.21875 324.664062 224.3125 324.59375 C 226.148438 324.59375 227.394531 325.621094 228.054688 327.011719 C 230.550781 322.023438 232.902344 316.890625 229.597656 311.828125 Z M 230.773438 289.527344 C 230.625 289.378906 230.550781 289.160156 230.40625 289.015625 C 226.734375 289.527344 222.992188 289.894531 219.25 290.042969 C 215.433594 290.1875 211.613281 289.601562 207.796875 289.378906 C 201.414062 288.941406 195.027344 288.71875 188.714844 288.648438 C 178.4375 288.574219 168.238281 288.792969 157.960938 288.867188 C 157.007812 289.601562 155.757812 289.96875 154.511719 289.820312 C 153.191406 292.316406 152.308594 295.324219 153.558594 297.375 C 154.292969 297.304688 155.027344 297.449219 155.832031 297.964844 C 167.871094 305.667969 182.917969 304.417969 196.640625 304.640625 C 202.292969 304.710938 208.019531 304.859375 213.671875 304.492188 C 217.855469 304.273438 223.578125 304.34375 227.101562 301.703125 C 229.816406 299.722656 232.605469 301.925781 233.046875 304.492188 C 236.570312 300.3125 234.074219 293.78125 230.773438 289.527344 Z M 230.773438 289.527344 " fill-opacity="1" fill-rule="nonzero" />
  <path fill="#febf10" d="M 288.902344 155.503906 C 287.582031 138.410156 284.425781 119.191406 274.078125 104.960938 C 261.894531 88.234375 242.222656 85.300781 222.84375 83.6875 C 210.515625 82.660156 198.035156 82.585938 185.707031 83.027344 C 175.722656 83.394531 165.816406 83.90625 156.199219 86.769531 C 139.683594 91.683594 126.328125 101.953125 116.566406 116.109375 C 110.839844 124.472656 105.480469 133.789062 102.914062 143.691406 C 100.195312 154.183594 99.390625 165.039062 100.269531 175.824219 C 101.957031 196.21875 106.804688 219.910156 125.152344 231.867188 C 132.785156 236.855469 141.375 240.816406 147.246094 248.007812 C 150.914062 252.480469 153.335938 258.351562 155.464844 263.707031 C 155.832031 264.585938 155.832031 265.394531 155.613281 266.125 C 159.871094 265.464844 164.273438 265.464844 168.089844 265.246094 C 174.035156 264.953125 179.832031 263.777344 185.707031 262.898438 C 185.707031 262.753906 185.707031 262.679688 185.707031 262.53125 C 185.707031 246.90625 184.679688 231.0625 181.15625 215.730469 C 178.734375 205.167969 175.285156 194.457031 169.777344 184.992188 C 167.871094 184.554688 166.035156 183.964844 164.421875 183.011719 C 159.28125 180.003906 158.109375 174.796875 161.117188 169.660156 C 162.292969 167.679688 165.375 166.433594 167.210938 168.488281 C 169.851562 171.347656 172.199219 174.429688 174.402344 177.65625 C 178.144531 178.097656 181.960938 178.023438 185.707031 177.65625 C 186.511719 177.585938 187.246094 177.511719 187.90625 177.363281 C 187.246094 176.261719 186.660156 175.089844 186.21875 173.84375 C 184.164062 168.339844 183.722656 161.519531 187.394531 156.53125 C 191.285156 151.320312 199.285156 150.367188 204.9375 153.15625 C 210.882812 156.089844 211.46875 162.546875 208.824219 168.121094 C 206.917969 171.9375 204.203125 175.75 200.898438 178.832031 C 203.613281 179.785156 206.625 179.566406 209.414062 178.539062 C 207.503906 169.589844 212.496094 158.070312 223.433594 161.371094 C 224.972656 161.8125 226.660156 163.058594 226.589844 164.894531 C 226.441406 170.761719 223.800781 176.777344 219.6875 181.179688 C 220.347656 181.691406 221.011719 181.984375 221.671875 182.207031 C 223.871094 178.246094 226.441406 174.28125 229.378906 170.980469 C 233.046875 166.800781 239.285156 163.207031 243.617188 168.855469 C 247.359375 173.769531 240.535156 180.8125 237.230469 183.894531 C 233.855469 187.046875 230.476562 189.46875 226.222656 190.128906 C 223.726562 194.675781 221.523438 199.296875 219.6875 204.140625 C 213.082031 222.039062 211.320312 241.257812 207.652344 259.816406 C 207.429688 260.84375 206.917969 261.578125 206.332031 262.09375 C 208.386719 262.164062 210.367188 262.238281 212.421875 262.3125 C 216.679688 262.386719 221.011719 262.457031 225.265625 262.824219 C 229.011719 263.117188 233.046875 263.484375 236.789062 264.511719 C 241.855469 244.121094 265.636719 233.847656 276.058594 216.683594 C 287.214844 198.125 290.589844 176.851562 288.902344 155.503906 Z M 288.902344 155.503906 " fill-opacity="1" fill-rule="nonzero" />
  <path fill="#73a1b2" d="M 216.753906 172.082031 C 217.265625 171.273438 217.632812 170.394531 217.925781 169.441406 C 217.339844 170.027344 216.972656 170.910156 216.753906 172.082031 Z M 216.753906 172.082031 " fill-opacity="1" fill-rule="nonzero" />
  <path fill="#010101" d="M 289.636719 118.53125 C 284.277344 103.054688 274.296875 89.847656 259.175781 82.953125 C 249.269531 78.476562 238.039062 77.304688 227.324219 76.203125 C 215.285156 75.03125 203.101562 74.808594 190.992188 75.03125 C 171.832031 75.398438 153.191406 77.15625 136.234375 86.839844 C 120.601562 95.789062 110.324219 110.390625 101.738281 125.71875 C 91.316406 144.351562 90.582031 167.167969 93.886719 187.78125 C 96.894531 206.488281 102.914062 225.414062 118.988281 237.003906 C 126.035156 242.066406 134.179688 245.585938 140.273438 251.820312 C 144.015625 255.636719 146.144531 261.359375 148.125 266.273438 C 148.347656 266.859375 148.714844 267.375 149.152344 267.742188 C 147.539062 268.402344 145.996094 269.207031 144.601562 270.234375 C 137.851562 275.441406 140.492188 284.6875 147.171875 287.105469 C 146.804688 288.058594 146.511719 289.015625 146.21875 289.746094 C 144.675781 294.515625 144.96875 299.945312 148.199219 303.390625 C 145.558594 306.839844 143.5 310.875 143.0625 315.054688 C 142.472656 320.042969 144.96875 323.710938 148.714844 325.765625 C 144.53125 336.328125 147.171875 348.800781 158.253906 354.15625 C 170.585938 360.097656 185.191406 355.328125 198.257812 355.84375 C 210.734375 356.355469 226.660156 359.363281 236.351562 349.460938 C 239.359375 346.304688 241.855469 341.539062 241.195312 337.0625 C 240.605469 333.320312 238.113281 331.195312 235.027344 330.167969 C 238.039062 323.710938 240.535156 317.550781 237.890625 310.875 C 244.496094 305.007812 243.398438 294.882812 238.847656 287.472656 C 242.664062 286.59375 246.40625 285.199219 249.269531 282.484375 C 253.378906 278.523438 250.734375 273.167969 247.359375 269.941406 C 246.332031 268.988281 245.304688 268.179688 244.128906 267.519531 C 245.746094 260.40625 250.515625 254.757812 255.507812 249.546875 C 261.746094 243.09375 268.644531 237.371094 274.738281 230.839844 C 288.390625 216.316406 295.214844 196.070312 296.832031 176.484375 C 298.371094 157.191406 295.949219 136.871094 289.636719 118.53125 Z M 151.871094 318.652344 C 150.769531 317.695312 150.476562 316.230469 151.207031 314.101562 C 152.164062 311.386719 153.777344 308.96875 155.613281 306.765625 C 168.015625 313.074219 182.917969 312.195312 196.496094 312.414062 C 202.734375 312.488281 208.972656 312.636719 215.285156 312.195312 C 219.617188 311.902344 224.828125 311.609375 228.9375 309.628906 C 228.9375 310.433594 229.15625 311.167969 229.597656 311.753906 C 232.902344 316.816406 230.550781 321.953125 228.054688 326.867188 C 227.46875 325.546875 226.222656 324.445312 224.3125 324.445312 C 210.292969 324.519531 196.273438 325.621094 182.183594 325.691406 C 176.898438 325.691406 171.613281 325.546875 166.402344 324.8125 C 163.980469 324.445312 160.53125 324.078125 157.960938 322.757812 C 157.59375 321.363281 156.347656 320.117188 154.878906 319.824219 C 154.804688 319.824219 154.730469 319.75 154.585938 319.75 C 153.851562 318.945312 152.824219 318.578125 151.871094 318.652344 Z M 233.046875 340.363281 C 231.945312 343.152344 229.523438 345.71875 226.808594 346.964844 C 222.257812 349.09375 216.238281 348.726562 211.394531 348.652344 C 205.816406 348.582031 200.238281 347.992188 194.660156 347.921875 C 184.53125 347.699219 174.109375 350.78125 164.054688 348.140625 C 155.390625 345.867188 153.410156 337.648438 155.464844 330.3125 C 162.363281 333.394531 171.761719 333.25 178.21875 333.394531 C 193.78125 333.761719 209.265625 332.296875 224.828125 332.222656 C 225.046875 332.222656 225.265625 332.222656 225.414062 332.148438 C 224.898438 334.714844 226.808594 336.84375 229.523438 336.917969 C 232.3125 337.0625 234.148438 337.503906 233.046875 340.363281 Z M 233.046875 304.417969 C 232.605469 301.851562 229.816406 299.722656 227.101562 301.632812 C 223.578125 304.199219 217.855469 304.125 213.671875 304.417969 C 208.019531 304.785156 202.292969 304.640625 196.640625 304.566406 C 182.988281 304.347656 167.871094 305.519531 155.832031 297.890625 C 155.027344 297.375 154.21875 297.230469 153.558594 297.304688 C 152.382812 295.25 153.265625 292.242188 154.511719 289.746094 C 155.757812 289.96875 157.007812 289.527344 157.960938 288.792969 C 168.238281 288.71875 178.4375 288.5 188.714844 288.574219 C 195.101562 288.648438 201.484375 288.867188 207.796875 289.308594 C 211.613281 289.601562 215.433594 290.113281 219.25 289.96875 C 222.992188 289.820312 226.660156 289.527344 230.40625 288.941406 C 230.476562 289.085938 230.625 289.308594 230.773438 289.453125 C 234.074219 293.78125 236.570312 300.3125 233.046875 304.417969 Z M 242.367188 277.9375 C 241.414062 278.523438 240.3125 278.890625 239.210938 279.183594 C 234.074219 280.945312 228.421875 281.457031 223.066406 281.898438 C 215.503906 282.484375 208.09375 281.457031 200.53125 281.089844 C 187.761719 280.503906 174.988281 280.796875 162.21875 280.945312 C 159.722656 280.945312 157.152344 281.019531 154.660156 281.019531 C 153.996094 280.210938 152.898438 279.699219 151.503906 279.84375 C 147.320312 280.359375 148.199219 276.691406 151.0625 275.441406 C 154.585938 273.976562 158.621094 273.683594 162.363281 273.390625 C 165.816406 273.09375 169.265625 273.023438 172.640625 272.730469 C 177.410156 272.363281 182.183594 271.042969 186.953125 270.382812 C 197.300781 268.988281 207.726562 269.792969 218.148438 270.085938 C 225.632812 270.308594 235.46875 270.234375 241.636719 275.148438 C 242.222656 275.589844 243.25 276.542969 243.46875 276.984375 C 243.394531 277.058594 243.394531 277.128906 243.542969 277.058594 C 243.101562 277.496094 242.734375 277.71875 242.367188 277.9375 Z M 193.851562 183.820312 C 195.761719 185.140625 197.890625 186.167969 200.3125 186.902344 C 205.007812 188.367188 209.414062 187.78125 213.304688 185.875 C 214.625 187.195312 216.238281 188.292969 218 189.101562 C 213.523438 198.125 210.074219 207.367188 207.652344 217.269531 C 204.347656 230.839844 202.660156 244.707031 200.019531 258.351562 C 199.726562 259.890625 200.238281 261.136719 201.191406 261.945312 C 199.652344 261.871094 198.109375 261.871094 196.570312 261.945312 C 195.613281 261.945312 194.585938 262.019531 193.632812 262.09375 C 193.632812 262.09375 193.632812 262.019531 193.632812 262.019531 C 193.558594 237.003906 191.136719 208.761719 179.246094 185.875 C 180.054688 185.875 180.863281 185.875 181.59375 185.875 C 185.707031 185.652344 190.035156 185.507812 193.851562 183.820312 Z M 193.558594 161.296875 C 195.175781 159.171875 202.367188 158.4375 202.585938 161.8125 C 202.808594 165.847656 197.890625 170.6875 195.246094 173.257812 C 195.101562 173.402344 194.878906 173.621094 194.734375 173.769531 C 194.511719 173.402344 194.292969 173.035156 194.148438 172.667969 C 192.53125 169.515625 191.210938 164.453125 193.558594 161.296875 Z M 216.753906 172.082031 C 216.972656 170.910156 217.339844 170.027344 217.925781 169.441406 C 217.632812 170.394531 217.265625 171.273438 216.753906 172.082031 Z M 275.984375 216.609375 C 265.488281 233.847656 241.78125 244.046875 236.71875 264.4375 C 232.902344 263.484375 228.9375 263.046875 225.195312 262.753906 C 220.9375 262.386719 216.679688 262.3125 212.347656 262.238281 C 210.292969 262.238281 208.3125 262.164062 206.257812 262.019531 C 206.917969 261.503906 207.429688 260.769531 207.578125 259.746094 C 211.25 241.113281 213.007812 221.964844 219.617188 204.066406 C 221.378906 199.222656 223.652344 194.601562 226.148438 190.054688 C 230.332031 189.394531 233.78125 186.902344 237.15625 183.820312 C 240.460938 180.8125 247.285156 173.769531 243.542969 168.78125 C 239.210938 163.132812 233.046875 166.726562 229.304688 170.910156 C 226.292969 174.28125 223.800781 178.171875 221.597656 182.132812 C 220.9375 181.914062 220.277344 181.546875 219.617188 181.105469 C 223.726562 176.703125 226.292969 170.6875 226.515625 164.820312 C 226.589844 162.984375 224.898438 161.738281 223.359375 161.296875 C 212.421875 157.996094 207.429688 169.589844 209.339844 178.464844 C 206.550781 179.566406 203.542969 179.710938 200.824219 178.757812 C 204.054688 175.675781 206.84375 171.9375 208.753906 168.046875 C 211.46875 162.472656 210.882812 156.015625 204.863281 153.082031 C 199.210938 150.296875 191.136719 151.320312 187.320312 156.457031 C 183.652344 161.445312 184.089844 168.269531 186.144531 173.769531 C 186.585938 175.015625 187.171875 176.191406 187.835938 177.289062 C 187.171875 177.4375 186.441406 177.511719 185.632812 177.585938 C 181.890625 177.949219 178.074219 178.023438 174.328125 177.585938 C 172.199219 174.355469 169.777344 171.273438 167.136719 168.414062 C 165.300781 166.433594 162.21875 167.679688 161.042969 169.589844 C 158.035156 174.722656 159.210938 179.929688 164.347656 182.9375 C 165.960938 183.894531 167.796875 184.480469 169.703125 184.917969 C 175.285156 194.382812 178.660156 205.09375 181.082031 215.65625 C 184.605469 230.914062 185.632812 246.832031 185.632812 262.457031 C 185.632812 262.605469 185.632812 262.679688 185.632812 262.824219 C 179.761719 263.707031 173.960938 264.878906 168.015625 265.171875 C 164.199219 265.394531 159.722656 265.464844 155.539062 266.054688 C 155.757812 265.320312 155.757812 264.511719 155.390625 263.632812 C 153.265625 258.277344 150.839844 252.410156 147.171875 247.933594 C 141.300781 240.816406 132.710938 236.785156 125.078125 231.796875 C 106.730469 219.839844 101.886719 196.144531 100.195312 175.75 C 99.316406 164.964844 100.050781 154.109375 102.839844 143.621094 C 105.410156 133.714844 110.765625 124.398438 116.492188 116.039062 C 126.179688 101.878906 139.613281 91.609375 156.125 86.695312 C 165.742188 83.832031 175.722656 83.246094 185.632812 82.953125 C 198.035156 82.511719 210.441406 82.585938 222.773438 83.613281 C 242.148438 85.152344 261.894531 88.160156 274.003906 104.886719 C 284.351562 119.117188 287.507812 138.339844 288.828125 155.429688 C 290.589844 176.851562 287.214844 198.125 275.984375 216.609375 Z M 171.6875 20.746094 L 171.6875 42.753906 C 171.6875 47.816406 179.46875 47.15625 179.46875 42.167969 L 179.46875 20.160156 C 179.46875 15.097656 171.6875 15.757812 171.6875 20.746094 Z M 99.609375 46.859375 C 99.464844 41.800781 91.683594 42.460938 91.828125 47.449219 C 91.976562 52.582031 93.519531 57.351562 95.5 62.046875 C 97.335938 66.449219 99.535156 70.703125 99.683594 75.617188 C 99.832031 80.679688 107.683594 80.019531 107.464844 75.03125 C 107.097656 64.980469 99.832031 56.910156 99.609375 46.859375 Z M 48.820312 163.941406 C 44.195312 156.605469 36.855469 151.910156 31.570312 145.160156 C 28.488281 141.199219 21.953125 145.527344 25.109375 149.5625 C 30.394531 156.308594 37.734375 161.078125 42.359375 168.339844 C 45 172.597656 51.460938 168.195312 48.820312 163.941406 Z M 279.875 36.078125 C 273.417969 40.917969 266.738281 45.90625 262.921875 53.242188 C 260.570312 57.71875 267.617188 61.164062 269.964844 56.691406 C 273.195312 50.675781 278.921875 46.566406 284.277344 42.53125 C 288.316406 39.597656 283.914062 33.070312 279.875 36.078125 Z M 82.582031 236.785156 C 73.847656 229.15625 66.289062 244.925781 60.5625 249.035156 C 56.453125 251.96875 60.855469 258.496094 64.964844 255.488281 C 67.828125 253.4375 69.957031 250.574219 72.234375 247.933594 C 73.480469 246.539062 74.726562 245 76.121094 243.824219 C 76.855469 243.238281 77.8125 243.09375 77.371094 242.652344 C 81.261719 246.027344 86.398438 240.085938 82.582031 236.785156 Z M 82.582031 236.785156 " fill-opacity="1" fill-rule="nonzero" />
</svg>